<svg aria-hidden="true" style="width:0;height:0;position:absolute;overflow:hidden" xmlns="http://www.w3.org/2000/svg"><defs><symbol id="heart" viewBox="0 0 32 32"><path fill="#ff6b08" style="fill:var(--color1,#ff6b08)" d="m16 30.574-2.24-2.218C5.44 21.069 0 16.158 0 10.138c0-4.911 3.84-8.713 8.8-8.713 2.72 0 5.44 1.267 7.2 3.327 1.76-2.059 4.48-3.327 7.2-3.327 4.96 0 8.8 3.802 8.8 8.713 0 6.02-5.44 10.931-13.76 18.218L16 30.574z"/></symbol><symbol id="close" viewBox="0 0 64 32"><path d="M47.997 3.223 44.774 0 31.997 12.777 19.22 0l-3.223 3.223L28.774 16 15.997 28.777 19.22 32l12.777-12.777L44.774 32l3.223-3.223L35.22 16 47.997 3.223z"/></symbol></defs></svg>